Patient4_TMGait_0pt8_01_right_30_GRF.mot
version=1
nRows=26
nColumns=19
inDegrees=no
endheader
time	F1x	F1y	F1z	M1x	M1y	M1z	F2x	F2y	F2z	M2x	M2y	M2z	EC1x	EC1y	EC1z	EC2x	EC2y	EC2z
33.54	27.4237	720.5853	64.5928	-268.189	-54.7839	749.7973	3.1061	-4.8873	12.5501	-5.0077	-7.3151	2.3375	-0.0592	0.0182	-0.0073	-0.0462	0.0165	0.9585
33.5512	25.4185	722.0754	62.5888	-268.9713	-53.3593	744.3835	1.815	-2.2137	8.3351	-2.9595	-4.6669	2.7597	-0.0592	0.0182	-0.0073	-0.0462	0.0165	0.9585
33.5624	24.6279	723.5176	60.3917	-269.8271	-51.1938	738.4993	0.74966	0.056493	4.7784	-1.2204	-2.4456	3.1787	-0.0592	0.0182	-0.0073	-0.0462	0.0165	0.9585
33.5736	25.1354	724.8218	58.1278	-270.7071	-48.3956	732.3725	-0.042473	1.8101	2.0857	0.11482	-0.77981	3.5715	-0.0592	0.0182	-0.0073	-0.0462	0.0165	0.9585
33.5849	26.7839	725.9237	55.9068	-271.5557	-45.1496	726.1356	-0.5784	3.0766	0.23099	1.0553	0.3576	3.9411	-0.0592	0.0182	-0.0073	-0.0462	0.0165	0.9585
33.5961	29.3337	726.7317	53.8003	-272.303	-41.6353	719.8304	-0.91354	3.9057	-0.91356	1.6522	1.0545	4.2558	-0.0592	0.0182	-0.0073	-0.0462	0.0165	0.9585
33.6073	32.5233	727.1734	51.8896	-272.8799	-38.0425	713.4406	-1.0986	4.3975	-1.5148	1.9827	1.4207	4.5264	-0.0592	0.0182	-0.0073	-0.0462	0.0165	0.9585
33.6185	36.1285	727.1632	50.272	-273.2158	-34.5632	706.9147	-1.2036	4.5953	-1.7636	2.1072	1.5919	4.6884	-0.0592	0.0182	-0.0073	-0.0462	0.0165	0.9585
33.6297	39.9599	726.679	49.0724	-273.2562	-31.4012	700.2354	-1.2581	4.5312	-1.7977	2.0738	1.6582	4.6755	-0.0592	0.0182	-0.0073	-0.0462	0.0165	0.9585
33.6409	43.8691	725.7621	48.4005	-272.9727	-28.7208	693.4282	-1.2985	4.1807	-1.7514	1.9008	1.7191	4.3781	-0.0592	0.0182	-0.0073	-0.0462	0.0165	0.9585
33.6521	47.7801	724.6259	48.3257	-272.4055	-26.6169	686.7057	-1.3426	3.4899	-1.6949	1.5854	1.817	3.6705	-0.0592	0.0182	-0.0073	-0.0462	0.0165	0.9585
33.6634	51.6466	723.6776	48.8804	-271.6797	-25.1268	680.4549	-1.3938	2.3819	-1.674	1.1083	1.9681	2.4216	-0.0592	0.0182	-0.0073	-0.0462	0.0165	0.9585
33.6746	55.4381	723.5741	50.0382	-271.021	-24.2272	675.323	-1.4361	0.77615	-1.7066	0.44469	2.1568	0.50635	-0.0592	0.0182	-0.0073	-0.0462	0.0165	0.9585
33.6858	59.0959	725.074	51.7743	-270.7026	-23.9057	672.0506	-1.4169	-1.3315	-1.7581	-0.40833	2.3077	-2.0772	-0.0592	0.0182	-0.0073	-0.0462	0.0165	0.9585
33.697	62.5266	728.8339	54.0224	-270.9717	-24.1255	671.2753	-1.2521	-3.8608	-1.7826	-1.4192	2.3202	-5.2205	-0.0592	0.0182	-0.0073	-0.0462	0.0165	0.9585
33.7082	65.6076	735.1563	56.7159	-271.948	-24.862	673.3057	-0.84288	-6.5392	-1.6831	-2.4812	2.0406	-8.5891	-0.0592	0.0182	-0.0073	-0.0462	0.0165	0.9585
33.7194	68.176	743.7731	59.7611	-273.5434	-26.0861	677.9135	-0.062948	-8.866	-1.3428	-3.3889	1.2791	-11.5536	-0.0592	0.0182	-0.0073	-0.0462	0.0165	0.9585
33.7306	70.0714	753.8287	63.0559	-275.4608	-27.7719	684.3173	1.212	-9.9675	-0.60967	-3.7889	-0.19042	-13.0029	-0.0592	0.0182	-0.0073	-0.0462	0.0165	0.9585
33.7419	71.1798	764.0177	66.4685	-277.2551	-29.8618	691.3225	3.0864	-8.5524	0.68238	-3.1589	-2.5985	-11.3247	-0.0592	0.0182	-0.0073	-0.0462	0.0165	0.9585
33.7531	71.4926	772.9106	69.8127	-278.4545	-32.2177	697.5875	5.5967	-2.8344	2.6817	-0.78503	-6.1224	-4.292	-0.0592	0.0182	-0.0073	-0.0462	0.0165	0.9585
33.7643	71.1144	779.1523	72.8504	-278.64	-34.6131	701.8063	8.6373	9.3618	5.4803	4.2036	-10.8161	10.806	-0.0592	0.0182	-0.0073	-0.0462	0.0165	0.9585
33.7755	70.311	781.5931	75.3171	-277.4889	-36.7398	702.817	11.849	30.435	9.0148	12.7523	-16.4391	36.9768	-0.0592	0.0182	-0.0073	-0.0462	0.0165	0.9585
33.7867	69.4222	779.3322	76.9233	-274.7851	-38.2342	699.6788	14.5361	62.4799	13.0038	25.6734	-22.3327	76.8553	-0.0592	0.0182	-0.0073	-0.0462	0.0165	0.9585
33.7979	68.8388	771.6114	77.3863	-270.3706	-38.7165	691.5764	15.4947	106.607	16.7852	43.358	-27.1723	131.8574	-0.0592	0.0182	-0.0073	-0.0462	0.0165	0.9585
33.8091	68.8159	757.6508	76.4767	-264.0675	-37.8878	677.731	12.9348	161.9894	19.3362	65.4043	-28.9873	200.9856	-0.0592	0.0182	-0.0073	-0.0462	0.0165	0.9585
33.8204	69.3843	736.4647	74.0208	-255.6013	-35.5813	657.2432	5.45	225.4556	19.4182	90.4579	-25.7048	280.3615	-0.0592	0.0182	-0.0073	-0.0462	0.0165	0.9585
